name E:\Dropbox\SEL\BOX\Experiment\240124_SUB1_PJH\c3d\XYZ\UpDown_TrcMot\15_10_trial2_D1_ExtLoadAPP3.mot
datacolumns 37
datarows 14
range 7.77 7.783
endheader

time	    ground_force1_vx	    ground_force1_vy	    ground_force1_vz	    ground_force1_px	    ground_force1_py	    ground_force1_pz	    ground_torque1_x	    ground_torque1_y	    ground_torque1_z	    ground_force2_vx	    ground_force2_vy	    ground_force2_vz	    ground_force2_px	    ground_force2_py	    ground_force2_pz	    ground_torque2_x	    ground_torque2_y	    ground_torque2_z	      hand_force3_vx	      hand_force3_vy	      hand_force3_vz	      hand_force3_px	      hand_force3_py	      hand_force3_pz	      hand_torque3_x	      hand_torque3_y	      hand_torque3_z	      hand_force4_vx	      hand_force4_vy	      hand_force4_vz	      hand_force4_px	      hand_force4_py	      hand_force4_pz	      hand_torque4_x	      hand_torque4_y	      hand_torque4_z	
7.77	         40.11732574	        424.96435372	        -19.50713574	          0.23060903	          0.00000000	          0.29894342	          0.00000000	         -4.62046703	          0.00000000	        -37.36062966	        384.67914599	        -14.29416038	          0.57016506	          0.00000000	          0.26808559	          0.00000000	          3.15038514	          0.00000000	          0.00000000	          0.00000000	          0.00000000	          0.14174205	          0.88467392	          0.02889751	          0.00000000	          0.00000000	          0.00000000	          0.00000000	          0.00000000	          0.00000000	          0.65743453	          0.91083853	          0.02177201	          0.00000000	          0.00000000	          0.00000000	
7.771	         40.14494897	        425.27230400	        -19.60956264	          0.23062838	          0.00000000	          0.29903341	          0.00000000	         -4.61981899	          0.00000000	        -37.37873136	        385.14428626	        -14.42667435	          0.57013918	          0.00000000	          0.26826654	          0.00000000	          3.15563684	          0.00000000	          0.00000000	          0.00000000	          0.00000000	          0.14169151	          0.88388157	          0.02915121	          0.00000000	          0.00000000	          0.00000000	          0.00000000	          0.00000000	          0.00000000	          0.65741744	          0.91001812	          0.02198280	          0.00000000	          0.00000000	          0.00000000	
7.772	         40.17328669	        425.57316274	        -19.70733072	          0.23064727	          0.00000000	          0.29912091	          0.00000000	         -4.61900533	          0.00000000	        -37.39716559	        385.59837214	        -14.55696131	          0.57011388	          0.00000000	          0.26844297	          0.00000000	          3.16080776	          0.00000000	          0.00000000	          0.00000000	          0.00000000	          0.14164071	          0.88308710	          0.02940339	          0.00000000	          0.00000000	          0.00000000	          0.00000000	          0.00000000	          0.00000000	          0.65740039	          0.90919636	          0.02219151	          0.00000000	          0.00000000	          0.00000000	
7.773	         40.20222157	        425.86663329	        -19.80040142	          0.23066569	          0.00000000	          0.29920590	          0.00000000	         -4.61802193	          0.00000000	        -37.41594985	        386.04042079	        -14.68494971	          0.57008920	          0.00000000	          0.26861466	          0.00000000	          3.16589000	          0.00000000	          0.00000000	          0.00000000	          0.00000000	          0.14158970	          0.88229043	          0.02965402	          0.00000000	          0.00000000	          0.00000000	          0.00000000	          0.00000000	          0.00000000	          0.65738339	          0.90837325	          0.02239813	          0.00000000	          0.00000000	          0.00000000	
7.774	         40.23163589	        426.15244285	        -19.88874800	          0.23068364	          0.00000000	          0.29928831	          0.00000000	         -4.61686490	          0.00000000	        -37.43510097	        386.46949884	        -14.81057406	          0.57006520	          0.00000000	          0.26878143	          0.00000000	          3.17087619	          0.00000000	          0.00000000	          0.00000000	          0.00000000	          0.14153855	          0.88149152	          0.02990305	          0.00000000	          0.00000000	          0.00000000	          0.00000000	          0.00000000	          0.00000000	          0.65736643	          0.90754879	          0.02260265	          0.00000000	          0.00000000	          0.00000000	
7.775	         40.26141191	        426.43034249	        -19.97235569	          0.23070115	          0.00000000	          0.29936813	          0.00000000	         -4.61553060	          0.00000000	        -37.45463514	        386.88472508	        -14.93377490	          0.57004192	          0.00000000	          0.26894312	          0.00000000	          3.17575940	          0.00000000	          0.00000000	          0.00000000	          0.00000000	          0.14148731	          0.88069029	          0.03015043	          0.00000000	          0.00000000	          0.00000000	          0.00000000	          0.00000000	          0.00000000	          0.65734952	          0.90672297	          0.02280507	          0.00000000	          0.00000000	          0.00000000	
7.776	         40.29143207	        426.70010717	        -20.05122167	          0.23071820	          0.00000000	          0.29944531	          0.00000000	         -4.61401570	          0.00000000	        -37.47456783	        387.28527291	        -15.05449881	          0.57001943	          0.00000000	          0.26909955	          0.00000000	          3.18053322	          0.00000000	          0.00000000	          0.00000000	          0.00000000	          0.14143605	          0.87988668	          0.03039611	          0.00000000	          0.00000000	          0.00000000	          0.00000000	          0.00000000	          0.00000000	          0.65733266	          0.90589580	          0.02300537	          0.00000000	          0.00000000	          0.00000000	
7.777	         40.32157933	        426.96153581	        -20.12535514	          0.23073482	          0.00000000	          0.29951984	          0.00000000	         -4.61231712	          0.00000000	        -37.49491381	        387.67037263	        -15.17269836	          0.56999775	          0.00000000	          0.26925060	          0.00000000	          3.18519174	          0.00000000	          0.00000000	          0.00000000	          0.00000000	          0.14138483	          0.87908063	          0.03064005	          0.00000000	          0.00000000	          0.00000000	          0.00000000	          0.00000000	          0.00000000	          0.65731586	          0.90506727	          0.02320354	          0.00000000	          0.00000000	          0.00000000	
7.778	         40.35173747	        427.21445126	        -20.19477726	          0.23075100	          0.00000000	          0.29959168	          0.00000000	         -4.61043212	          0.00000000	        -37.51568710	        388.03931346	        -15.28833204	          0.56997694	          0.00000000	          0.26939611	          0.00000000	          3.18972955	          0.00000000	          0.00000000	          0.00000000	          0.00000000	          0.14133371	          0.87827206	          0.03088220	          0.00000000	          0.00000000	          0.00000000	          0.00000000	          0.00000000	          0.00000000	          0.65729910	          0.90423737	          0.02339958	          0.00000000	          0.00000000	          0.00000000	
7.779	         40.38179134	        427.45870030	        -20.25952112	          0.23076676	          0.00000000	          0.29966083	          0.00000000	         -4.60835829	          0.00000000	        -37.53690098	        388.39144536	        -15.40136421	          0.56995703	          0.00000000	          0.26953598	          0.00000000	          3.19414175	          0.00000000	          0.00000000	          0.00000000	          0.00000000	          0.14128275	          0.87746092	          0.03112251	          0.00000000	          0.00000000	          0.00000000	          0.00000000	          0.00000000	          0.00000000	          0.65728241	          0.90340611	          0.02359346	          0.00000000	          0.00000000	          0.00000000	
7.78	         40.41162717	        427.69415364	        -20.31963163	          0.23078210	          0.00000000	          0.29972726	          0.00000000	         -4.60609354	          0.00000000	        -37.55856793	        388.72618066	        -15.51176493	          0.56993806	          0.00000000	          0.26967011	          0.00000000	          3.19842396	          0.00000000	          0.00000000	          0.00000000	          0.00000000	          0.14123199	          0.87664711	          0.03136093	          0.00000000	          0.00000000	          0.00000000	          0.00000000	          0.00000000	          0.00000000	          0.65726577	          0.90257347	          0.02378518	          0.00000000	          0.00000000	          0.00000000	
7.781	         40.44113287	        427.92070589	        -20.37516543	          0.23079705	          0.00000000	          0.29979098	          0.00000000	         -4.60363614	          0.00000000	        -37.58069965	        389.04299538	        -15.61950992	          0.56992008	          0.00000000	          0.26979841	          0.00000000	          3.20257231	          0.00000000	          0.00000000	          0.00000000	          0.00000000	          0.14118152	          0.87583058	          0.03159739	          0.00000000	          0.00000000	          0.00000000	          0.00000000	          0.00000000	          0.00000000	          0.65724919	          0.90173947	          0.02397473	          0.00000000	          0.00000000	          0.00000000	
7.782	         40.47019828	        428.13827549	        -20.42619071	          0.23081161	          0.00000000	          0.29985197	          0.00000000	         -4.60098475	          0.00000000	        -37.60330703	        389.34143040	        -15.72458035	          0.56990310	          0.00000000	          0.26992081	          0.00000000	          3.20658344	          0.00000000	          0.00000000	          0.00000000	          0.00000000	          0.14113137	          0.87501126	          0.03183186	          0.00000000	          0.00000000	          0.00000000	          0.00000000	          0.00000000	          0.00000000	          0.65723268	          0.90090408	          0.02416209	          0.00000000	          0.00000000	          0.00000000	
7.783	         40.49871552	        428.34680469	        -20.47278703	          0.23082580	          0.00000000	          0.29991024	          0.00000000	         -4.59813839	          0.00000000	        -37.62640012	        389.62109238	        -15.82696272	          0.56988716	          0.00000000	          0.27003725	          0.00000000	          3.21045449	          0.00000000	          0.00000000	          0.00000000	          0.00000000	          0.14108161	          0.87418906	          0.03206427	          0.00000000	          0.00000000	          0.00000000	          0.00000000	          0.00000000	          0.00000000	          0.65721623	          0.90006731	          0.02434725	          0.00000000	          0.00000000	          0.00000000	
